<svg preserveAspectRatio="none" overflow="visible" style="display: block;" width="87.9513" height="11.7244" viewBox="0 0 87.9513 11.7244" fill="none" xmlns="http://www.w3.org/2000/svg">
<g id="Frame 16">
<path id="Vector" fill-rule="evenodd" clip-rule="evenodd" d="M4.74514 1.46391C4.77737 1.49606 4.80294 1.53425 4.82039 1.5763C4.83784 1.61835 4.84682 1.66343 4.84682 1.70896C4.84682 1.75448 4.83784 1.79956 4.82039 1.84161C4.80294 1.88366 4.77737 1.92185 4.74514 1.954L0.836136 5.86232L4.74514 9.77063C4.77732 9.80281 4.80285 9.84101 4.82026 9.88305C4.83768 9.9251 4.84664 9.97016 4.84664 10.0157C4.84664 10.0612 4.83768 10.1062 4.82026 10.1483C4.80285 10.1903 4.77732 10.2285 4.74514 10.2607C4.71296 10.2929 4.67476 10.3184 4.63271 10.3358C4.59066 10.3533 4.5456 10.3622 4.50009 10.3622C4.45458 10.3622 4.40952 10.3533 4.36747 10.3358C4.32543 10.3184 4.28722 10.2929 4.25504 10.2607L0.101683 6.10736C0.0694512 6.07521 0.0438786 6.03702 0.02643 5.99497C0.00898144 5.95292 -1.02535e-07 5.90784 -1.02535e-07 5.86232C-1.02535e-07 5.81679 0.00898144 5.77171 0.02643 5.72966C0.0438786 5.68761 0.0694512 5.64942 0.101683 5.61727L4.25504 1.46391C4.28719 1.43168 4.32539 1.4061 4.36744 1.38865C4.40949 1.37121 4.45457 1.36222 4.50009 1.36222C4.54562 1.36222 4.5907 1.37121 4.63274 1.38865C4.67479 1.4061 4.71299 1.43168 4.74514 1.46391Z" fill="black"/>
<g id="Group 52">
<path id="Vector_2" fill-rule="evenodd" clip-rule="evenodd" d="M43.9748 2.32157C43.0511 2.32192 42.1523 2.62154 41.4131 3.17555C40.6739 3.72956 40.1342 4.50814 39.8746 5.39466C39.615 6.28119 39.6497 7.22795 39.9733 8.09313C40.297 8.95832 40.8923 9.69535 41.6699 10.1939C42.4476 10.6924 43.3659 10.9255 44.2872 10.8583C45.2085 10.7912 46.0832 10.4273 46.7804 9.8213C47.4776 9.21529 47.9596 8.39971 48.1544 7.49673C48.3492 6.59376 48.2461 5.65198 47.8607 4.81247C47.8188 4.71041 47.818 4.59607 47.8584 4.49339C47.8988 4.39072 47.9774 4.30766 48.0777 4.26161C48.178 4.21555 48.2922 4.21007 48.3964 4.24631C48.5006 4.28254 48.5868 4.35769 48.6369 4.45602C49.0993 5.46348 49.2229 6.59366 48.9891 7.67726C48.7554 8.76085 48.1768 9.73954 47.3401 10.4667C46.5034 11.1939 45.4536 11.6304 44.348 11.7109C43.2424 11.7914 42.1405 11.5115 41.2073 10.9132C40.2741 10.3148 39.5599 9.43024 39.1717 8.39193C38.7834 7.35361 38.742 6.21745 39.0537 5.15364C39.3654 4.08982 40.0133 3.15561 40.9005 2.49095C41.7876 1.82629 42.8663 1.46695 43.9748 1.46676V2.32157Z" fill="black"/>
<path id="Vector_3" d="M43.9748 3.57472V0.213622C43.9748 0.173015 43.9864 0.133254 44.0082 0.098993C44.03 0.0647323 44.0611 0.0373906 44.0979 0.0201697C44.1346 0.00294877 44.1756 -0.00343853 44.2158 0.00175571C44.2561 0.00694995 44.2941 0.0235107 44.3253 0.0494988L46.3426 1.73005C46.4452 1.81553 46.4452 1.97281 46.3426 2.05829L44.3253 3.73884C44.2941 3.76483 44.2561 3.78139 44.2158 3.78659C44.1756 3.79178 44.1346 3.78539 44.0979 3.76817C44.0611 3.75095 44.03 3.72361 44.0082 3.68935C43.9864 3.65509 43.9748 3.61533 43.9748 3.57472Z" fill="black"/>
</g>
<path id="Vector_4" fill-rule="evenodd" clip-rule="evenodd" d="M83.2062 10.2605C83.174 10.2284 83.1484 10.1902 83.1309 10.1481C83.1135 10.1061 83.1045 10.061 83.1045 10.0155C83.1045 9.96997 83.1135 9.92489 83.1309 9.88284C83.1484 9.84079 83.174 9.8026 83.2062 9.77044L87.1152 5.86213L83.2062 1.95382C83.174 1.92164 83.1485 1.88344 83.1311 1.84139C83.1137 1.79935 83.1047 1.75428 83.1047 1.70878C83.1047 1.66327 83.1137 1.6182 83.1311 1.57616C83.1485 1.53411 83.174 1.49591 83.2062 1.46373C83.2384 1.43155 83.2766 1.40602 83.3186 1.3886C83.3607 1.37119 83.4057 1.36222 83.4512 1.36222C83.4967 1.36222 83.5418 1.37119 83.5839 1.3886C83.6259 1.40602 83.6641 1.43155 83.6963 1.46373L87.8496 5.61709C87.8819 5.64924 87.9075 5.68743 87.9249 5.72948C87.9423 5.77153 87.9513 5.81661 87.9513 5.86213C87.9513 5.90766 87.9423 5.95274 87.9249 5.99479C87.9075 6.03684 87.8819 6.07503 87.8496 6.10718L83.6963 10.2605C83.6641 10.2928 83.6259 10.3183 83.5839 10.3358C83.5418 10.3532 83.4968 10.3622 83.4512 10.3622C83.4057 10.3622 83.3606 10.3532 83.3186 10.3358C83.2765 10.3183 83.2383 10.2928 83.2062 10.2605Z" fill="black"/>
</g>
</svg>
